<svg xmlns="http://www.w3.org/2000/svg" width="192" height="192" viewBox="0 0 192 192">
  <!-- 배경 -->
  <rect width="192" height="192" rx="40" fill="#1a0533"/>
  <!-- 번개 아이콘 (원본 48x46 → 중앙 상단에 배치, 스케일 2.4배) -->
  <g transform="translate(48, 18) scale(2.0)">
    <path fill="#863bff" d="M25.946 44.938c-.664.845-2.021.375-2.021-.698V33.937a2.26 2.26 0 0 0-2.262-2.262H10.287c-.92 0-1.456-1.04-.92-1.788l7.48-10.471c1.07-1.497 0-3.578-1.842-3.578H1.237c-.92 0-1.456-1.04-.92-1.788L10.013.474c.214-.297.556-.474.92-.474h28.894c.92 0 1.456 1.04.92 1.788l-7.48 10.471c-1.07 1.498 0 3.579 1.842 3.579h11.377c.943 0 1.473 1.088.89 1.83L25.947 44.94z" style="fill:#863bff;fill-opacity:1"/>
  </g>
  <!-- 비서 텍스트 -->
  <text x="96" y="162" text-anchor="middle" font-family="-apple-system, 'Noto Sans KR', sans-serif" font-size="32" font-weight="700" fill="white" letter-spacing="-1">비서</text>
</svg>
